#!OML:ASF H:\LiuWeirdWalks\Patient Classification 1\Patient 1\Session 1\male.ASF
:FULLY-SPECIFIED
:DEGREES
877
root -0.855687 17.9413 2.64817 -10.5258 7.66177 -4.46078
lowerback 14.6281 4.15803 2.71361
upperback 2.05527 5.95396 0.193566
thorax -5.73163 2.86943 -2.45415
lowerneck -15.0281 -2.84226 1.74455
upperneck 20.5944 -4.89168 2.34867
head 8.95919 -1.88535 -0.0778633
rclavicle -1.85242e-014 -1.59028e-015
rhumerus -26.2861 12.5744 -52.3178
rradius 76.1125
rwrist -2.03804
rhand 1.20304 10.4147
rfingers 7.12502
rthumb 26.7422 -17.7154
lclavicle -1.85242e-014 -1.59028e-015
lhumerus -46.0241 13.1992 49.7252
lradius 53.3218
lwrist -3.39943
lhand -9.59538 -3.87752
lfingers 7.12502
lthumb 16.3733 25.4514
rfemur 5.00647 -6.76152 31.4436
rtibia 22.108
rfoot -10.1355 -28.7823
rtoes 6.21248
lfemur -68.2214 4.08815 2.45476
ltibia 118.921
lfoot 40.4126 -12.2663
ltoes -1.23267
878
root -0.87342 17.9539 2.65801 -10.3792 7.4802 -4.22537
lowerback 14.5042 4.07284 2.22488
upperback 2.02998 5.75001 0.0161685
thorax -5.73098 2.77784 -2.32342
lowerneck -15.2456 -2.73618 1.77375
upperneck 20.6776 -4.81053 2.55125
head 9.03357 -1.81862 -0.00841667
rclavicle 1.76421e-015 1.11319e-014
rhumerus -26.6894 12.8167 -52.6769
rradius 76.4652
rwrist -1.89229
rhand 1.43913 10.9355
rfingers 7.12502
rthumb 26.9681 -17.1598
lclavicle 1.76421e-015 1.11319e-014
lhumerus -45.6558 13.2345 49.9807
lradius 53.0899
lwrist -3.62523
lhand -10.0049 -3.93908
lfingers 7.12502
lthumb 15.9789 25.4219
rfemur 5.21326 -6.64311 31.2826
rtibia 21.5318
rfoot -9.79787 -28.6391
rtoes 6.18307
lfemur -67.7609 4.59252 3.62104
ltibia 119.643
lfoot 42.0032 -13.4648
ltoes -2.37154
879
root -0.893446 17.9654 2.66762 -10.2392 7.31829 -3.98104
lowerback 14.3917 3.97916 1.70854
upperback 2.01342 5.53125 -0.171658
thorax -5.72735 2.67959 -2.18585
lowerneck -15.4817 -2.623 1.8201
upperneck 20.7473 -4.72567 2.7583
head 9.1065 -1.74819 0.060527
rclavicle 3.80921e-014 1.03368e-014
rhumerus -27.1122 13.0373 -53.0358
rradius 76.7675
rwrist -1.72966
rhand 1.55486 11.4268
rfingers 7.12502
rthumb 27.0788 -16.6514
lclavicle 3.80921e-014 1.03368e-014
lhumerus -45.2354 13.3109 50.1963
lradius 52.8404
lwrist -3.84785
lhand -10.4847 -4.00751
lfingers 7.12502
lthumb 15.5168 25.3899
rfemur 5.40796 -6.50134 31.1283
rtibia 20.9863
rfoot -9.47003 -28.5372
rtoes 6.15898
lfemur -67.2759 5.10101 4.88127
ltibia 120.193
lfoot 42.8651 -14.5578
ltoes -3.26522
880
root -0.915629 17.9757 2.6775 -10.111 7.20258 -3.71506
lowerback 14.2799 3.87301 1.15688
upperback 2.01208 5.2908 -0.375253
thorax -5.70796 2.57168 -2.04024
lowerneck -15.7238 -2.51035 1.86082
upperneck 20.8078 -4.64602 2.98813
head 9.17823 -1.67799 0.138051
rclavicle 4.02787e-014 1.59028e-015
rhumerus -27.5573 13.225 -53.3904
rradius 77.0129
rwrist -1.56227
rhand 1.56031 11.8797
rfingers 7.12502
rthumb 27.084 -16.1977
lclavicle 4.02787e-014 1.59028e-015
lhumerus -44.7617 13.3829 50.3949
lradius 52.5932
lwrist -4.01726
lhand -11.0411 -4.0562
lfingers 7.12502
lthumb 14.9809 25.3819
rfemur 5.45582 -6.36493 30.9576
rtibia 20.7693
rfoot -9.33246 -28.5059
rtoes 6.14026
lfemur -66.7503 5.57384 6.17511
ltibia 120.582
lfoot 42.8373 -15.385
ltoes -3.64538
881
root -0.940499 17.9851 2.68703 -9.99826 7.12301 -3.45727
lowerback 14.1875 3.75259 0.590656
upperback 2.01436 5.03052 -0.583498
thorax -5.694 2.45402 -1.88885
lowerneck -15.9347 -2.3886 1.92928
upperneck 20.8211 -4.55626 3.20938
head 9.22694 -1.60325 0.210524
rclavicle -2.03754e-014 -1.27222e-014
rhumerus -28.0344 13.389 -53.743
rradius 77.2039
rwrist -1.37517
rhand 1.47133 12.2994
rfingers 7.12502
rthumb 26.9989 -15.7911
lclavicle -2.03754e-014 -1.27222e-014
lhumerus -44.2525 13.465 50.5587
lradius 52.3411
lwrist -4.1753
lhand -11.6262 -4.14197
lfingers 7.12502
lthumb 14.4172 25.3373
rfemur 5.49979 -6.21553 30.8102
rtibia 20.5777
rfoot -9.2117 -28.5224
rtoes 6.13941
lfemur -66.2126 6.03404 7.50838
ltibia 120.792
lfoot 41.9165 -15.7936
ltoes -3.55921
882
root -0.967761 17.9935 2.69569 -9.89576 7.07019 -3.21688
lowerback 14.1203 3.61986 0.0159313
upperback 2.00674 4.75385 -0.790696
thorax -5.7024 2.32796 -1.73067
lowerneck -16.1053 -2.2579 2.01945
upperneck 20.8287 -4.45682 3.4237
head 9.26543 -1.52353 0.27923
rclavicle 2.10712e-014 1.59028e-015
rhumerus -28.5515 13.5315 -54.0897
rradius 77.3438
rwrist -1.16128
rhand 1.32631 12.6955
rfingers 7.12502
rthumb 26.8601 -15.4165
lclavicle 2.10712e-014 1.59028e-015
lhumerus -43.7321 13.5349 50.6908
lradius 52.102
lwrist -4.29764
lhand -12.2256 -4.237
lfingers 7.12502
lthumb 13.8396 25.2826
rfemur 5.53866 -6.05482 30.6942
rtibia 20.3966
rfoot -9.0944 -28.5706
rtoes 6.15008
lfemur -65.6766 6.49588 8.85774
ltibia 120.828
lfoot 40.1119 -15.6272
ltoes -3.26209
883
root -0.997125 18.0017 2.70403 -9.81643 7.05936 -2.98672
lowerback 14.0778 3.47242 -0.564567
upperback 2.00107 4.45721 -1.00101
thorax -5.71937 2.19211 -1.57008
lowerneck -16.2022 -2.12086 2.1357
upperneck 20.785 -4.34841 3.63018
head 9.27158 -1.44082 0.343378
rclavicle 1.70209e-014 1.35174e-014
rhumerus -29.0964 13.6414 -54.4225
rradius 77.4352
rwrist -0.96527
rhand 1.20746 13.0439
rfingers 7.12502
rthumb 26.7464 -15.0855
lclavicle 1.70209e-014 1.35174e-014
lhumerus -43.1979 13.5605 50.8091
lradius 51.9035
lwrist -4.31429
lhand -12.8218 -4.32044
lfingers 7.12502
lthumb 13.265 25.2374
rfemur 5.59844 -5.89702 30.593
rtibia 20.209
rfoot -8.98411 -28.6418
rtoes 6.18593
lfemur -65.1308 6.90629 10.1802
ltibia 120.684
lfoot 37.5694 -14.7485
ltoes -2.68861
884
root -1.02837 18.0093 2.71177 -9.7653 7.10828 -2.78197
lowerback 14.0902 3.30511 -1.13948
upperback 1.98282 4.13458 -1.20614
thorax -5.77633 2.04315 -1.40596
lowerneck -16.2688 -1.98452 2.2504
upperneck 20.7689 -4.24101 3.83727
head 9.28178 -1.3582 0.40829
rclavicle 8.12532e-014 -3.02153e-014
rhumerus -29.6945 13.7256 -54.7374
rradius 77.4948
rwrist -0.78757
rhand 1.14758 13.3482
rfingers 7.12502
rthumb 26.6891 -14.7899
lclavicle 8.12532e-014 -3.02153e-014
lhumerus -42.6688 13.5324 50.9134
lradius 51.7454
lwrist -4.25696
lhand -13.4062 -4.39272
lfingers 7.12502
lthumb 12.7016 25.201
rfemur 5.68621 -5.7455 30.5236
rtibia 20.0038
rfoot -8.87138 -28.7465
rtoes 6.24536
lfemur -64.5886 7.24136 11.463
ltibia 120.36
lfoot 34.3435 -13.1487
ltoes -2.1366
885
root -1.06123 18.0156 2.71869 -9.74793 7.21716 -2.61039
lowerback 14.1583 3.12064 -1.70057
upperback 1.96205 3.7899 -1.40068
thorax -5.8625 1.88341 -1.23686
lowerneck -16.3078 -1.85414 2.3513
upperneck 20.7891 -4.14234 4.05801
head 9.30022 -1.27845 0.479452
rclavicle 6.05548e-014 -7.95139e-016
rhumerus -30.3152 13.7755 -55.0143
rradius 77.516
rwrist -0.666376
rhand 1.18296 13.6069
rfingers 7.12502
rthumb 26.7229 -14.526
lclavicle 6.05548e-014 -7.95139e-016
lhumerus -42.1312 13.4624 51.0195
lradius 51.6349
lwrist -4.12378
lhand -13.947 -4.45633
lfingers 7.12502
lthumb 12.1802 25.1691
rfemur 5.81287 -5.60639 30.4931
rtibia 19.7676
rfoot -8.74237 -28.8833
rtoes 6.31673
lfemur -64.0585 7.50025 12.6921
ltibia 119.861
lfoot 30.6175 -10.8695
ltoes -1.3708
886
root -1.09518 18.0213 2.72563 -9.77028 7.43337 -2.45104
lowerback 14.2792 2.91108 -2.26355
upperback 1.94002 3.40906 -1.588
thorax -5.97524 1.70664 -1.05384
lowerneck -16.2878 -1.7446 2.38945
upperneck 20.838 -4.06502 4.3208
head 9.32004 -1.20884 0.573403
rclavicle 9.49197e-015 2.3059e-014
rhumerus -30.9854 13.8066 -55.2424
rradius 77.5098
rwrist -0.5858
rhand 1.28529 13.8034
rfingers 7.12502
rthumb 26.8209 -14.3146
lclavicle 9.49197e-015 2.3059e-014
lhumerus -41.5902 13.3446 51.1375
lradius 51.5655
lwrist -3.9314
lhand -14.4553 -4.51505
lfingers 7.12502
lthumb 11.6901 25.1388
rfemur 5.99096 -5.51569 30.4684
rtibia 19.4994
rfoot -8.60442 -29.058
rtoes 6.40549
lfemur -63.5638 7.61133 13.7997
ltibia 119.195
lfoot 26.5911 -7.95229
ltoes -0.235821
